<?xml version="1.0" encoding="UTF-8"?>
<svg width="210px" height="49px" viewBox="0 0 210 49" version="1.1" xmlns="http://www.w3.org/2000/svg" xmlns:xlink="http://www.w3.org/1999/xlink">
    <!-- Generator: Sketch 41.2 (35397) - http://www.bohemiancoding.com/sketch -->
    <title>donwload-mac_appstore</title>
    <desc>Created with Sketch.</desc>
    <defs></defs>
    <g id="Website" stroke="none" stroke-width="1" fill="none" fill-rule="evenodd">
        <g id="Desktop" transform="translate(-585.000000, -570.000000)">
            <g id="donwload-mac_appstore" transform="translate(585.000000, 570.000000)">
                <path d="M210,44.0880729 C210,46.8018164 207.794688,49 205.066998,49 L4.93943571,49 C2.21303189,49 0,46.8018164 0,44.0880729 L0,4.91705708 C0,2.20459602 2.21303189,0 4.93943571,0 L205.066998,0 C207.795975,0 210,2.20459602 210,4.91705708 L210,44.0880729 L210,44.0880729 Z" id="Shape" fill="#555555"></path>
                <g id="Group" transform="translate(15.071770, 7.000000)" fill="#FFFFFF">
                    <path d="M22.6494911,17.4684231 C22.6111266,13.3776923 26.0959026,11.3862692 26.2544759,11.2948846 C24.2812614,8.4975 21.2223314,8.11419231 20.1494041,8.085 C17.5789822,7.82353846 15.0878469,9.58015385 13.7796172,9.58015385 C12.4458112,9.58015385 10.429117,8.11165385 8.25896477,8.15607692 C5.46474989,8.19796154 2.84956938,9.76926923 1.41473684,12.2112692 C-1.54444541,17.1904615 0.662792518,24.5101154 3.49665072,28.5323077 C4.91485863,30.5059615 6.57220531,32.7042692 8.74107873,32.6268462 C10.8639147,32.5430769 11.6555024,31.3131923 14.2182514,31.3131923 C16.7554241,31.3131923 17.4996955,32.6268462 19.7120487,32.5773462 C21.9883428,32.5430769 23.4244541,30.5986154 24.7927882,28.6084615 C26.4322314,26.3492308 27.0895433,24.1255385 27.1163984,24.0100385 C27.0626881,23.991 22.6942497,22.3727308 22.6494911,17.4684231 Z" id="Shape"></path>
                    <path d="M18.4703175,5.43865385 C19.6110222,4.05011538 20.3911005,2.16403846 20.1749804,0.248769231 C18.522749,0.318576923 16.4561809,1.35807692 15.2668813,2.71615385 C14.214415,3.9105 13.2744846,5.87146154 13.5174598,7.71438462 C15.3730231,7.84892308 17.2784602,6.80434615 18.4703175,5.43865385 Z" id="Shape"></path>
                </g>
                <g id="Group" transform="translate(53.253589, 22.000000)" fill="#FFFFFF">
                    <path d="M17.5495694,17.2448889 L15.0301849,17.2448889 L14.6934101,10.5186667 C14.532735,7.48138889 14.462038,5.22227778 14.4774628,3.74516667 L14.4054804,3.74516667 C13.8938911,5.63755556 13.2614742,7.66411111 12.5095151,9.82738889 L9.99013061,17.1017778 L8.02218285,17.1017778 L5.71874564,9.94622222 C5.03105651,7.78294444 4.47062201,5.7155 4.03872753,3.74388889 L3.98988232,3.74388889 C3.91018751,6.16016667 3.81378249,8.45888889 3.70195267,10.6375 L3.317618,17.2436111 L0.894638562,17.2436111 L1.97437476,1.16661111 L5.30998836,1.16661111 L7.63784818,8.13177778 C8.21370749,9.84911111 8.71758438,11.6955 9.14947886,13.6671111 L9.22146127,13.6671111 C9.73305056,11.6162778 10.2767749,9.77116667 10.8526342,8.13177778 L13.276899,1.16661111 L16.6125126,1.16661111 L17.5495694,17.2448889 Z" id="Shape"></path>
                    <path d="M28.8996534,17.2448889 L26.5717936,17.2448889 L26.380269,15.9096111 L26.3082866,15.9096111 C25.5074822,16.9752778 24.3724738,17.5068333 22.9006905,17.5068333 C21.7965317,17.5068333 20.9096056,17.158 20.2373413,16.4590556 C19.629347,15.8227222 19.3259925,15.0368889 19.3259925,14.0977222 C19.3259925,12.6832222 19.9211328,11.5996667 21.1139842,10.8534444 C22.3055502,10.1046667 23.9804267,9.7405 26.1411845,9.75583333 L26.1411845,9.54116667 C26.1411845,8.01422222 25.3352386,7.25266667 23.7233467,7.25266667 C22.5729135,7.25266667 21.5600181,7.53761111 20.6820897,8.11133333 L20.1537902,6.417 C21.2399534,5.74872222 22.5741989,5.4165 24.1552412,5.4165 C27.2054959,5.4165 28.731266,7.01372222 28.731266,10.2107222 L28.731266,14.4810556 C28.731266,15.64 28.7878236,16.5612778 28.8996534,17.2448889 Z M26.2118815,13.2620556 L26.2118815,11.4731667 C23.3480098,11.4258889 21.9173594,12.2040556 21.9173594,13.8115 C21.9173594,14.4158889 22.083176,14.8695 22.4186655,15.1710556 C22.7528695,15.4726111 23.1731954,15.6233889 23.6822139,15.6233889 C24.2555024,15.6233889 24.7838019,15.4457778 25.2696832,15.0867222 C25.7542791,14.7302222 26.0524919,14.2727778 26.1643217,13.7169444 C26.1951713,13.5891667 26.2118815,13.4371111 26.2118815,13.2620556 Z" id="Shape"></path>
                    <path d="M39.817843,5.96211111 L39.3139661,7.91838889 C38.658412,7.6015 37.9064529,7.44177778 37.0580887,7.44177778 C35.9217949,7.44177778 35.0233001,7.81872222 34.3587482,8.57516667 C33.6941963,9.33161111 33.3638484,10.2899444 33.3638484,11.4501667 C33.3638484,12.673 33.7121919,13.6441111 34.4075934,14.3596667 C35.102995,15.0739444 35.9873503,15.433 37.0580887,15.433 C37.8576077,15.433 38.6417018,15.2732778 39.4103711,14.9563889 L39.7702832,16.8883889 C38.921919,17.2857778 37.8511807,17.4851111 36.5554972,17.4851111 C34.7803595,17.4851111 33.3651338,16.9484444 32.3085349,15.8751111 C31.2519359,14.8017778 30.7249218,13.3668333 30.7249218,11.5702778 C30.7249218,9.77372222 31.2930687,8.29788889 32.4293625,7.14533333 C33.5643709,5.99277778 35.0927118,5.41522222 37.0118143,5.41522222 C38.0979775,5.41522222 39.0337489,5.59794444 39.817843,5.96211111 Z" id="Shape"></path>
                    <path d="M58.9638795,17.2448889 L56.2054106,17.2448889 L54.6924945,12.5235 L49.4390638,12.5235 L47.9994155,17.2448889 L45.3103582,17.2448889 L50.5175145,1.16788889 L53.7323005,1.16788889 L58.9638795,17.2448889 Z M54.2374628,10.5442222 L52.869797,6.34416667 C52.7258321,5.91483333 52.4533273,4.90666667 52.0535678,3.31583333 L52.0047226,3.31583333 C51.8440476,4.00072222 51.5882529,5.00888889 51.2373387,6.34416667 L49.8940954,10.5442222 L54.2374628,10.5442222 Z" id="Shape"></path>
                    <path d="M72.3513229,11.3057778 C72.3513229,13.2799444 71.8165964,14.8375556 70.7445726,15.9824444 C69.785664,17.0008333 68.5928126,17.5068333 67.1698746,17.5068333 C65.6338213,17.5068333 64.5309479,16.9599444 63.8586836,15.8623333 L63.8111238,15.8623333 L63.8111238,21.9688333 L61.2197569,21.9688333 L61.2197569,9.46833333 C61.2197569,8.22761111 61.1876219,6.9575 61.1220665,5.65288889 L63.4010811,5.65288889 L63.5463313,7.49033333 L63.5938911,7.49033333 C64.4576801,6.10777778 65.7675029,5.4165 67.5285012,5.4165 C68.9038795,5.4165 70.0517419,5.95572222 70.9733739,7.03927778 C71.892435,8.119 72.3513229,9.54116667 72.3513229,11.3057778 Z M69.7123962,11.4028889 C69.7123962,10.2720556 69.4566016,9.34438889 68.9437269,8.60966667 C68.3832924,7.84811111 67.6326186,7.46605556 66.6891349,7.46605556 C66.0490056,7.46605556 65.4692901,7.67561111 64.948703,8.09727778 C64.4281159,8.51894444 64.0874848,9.07094444 63.9293806,9.75455556 C63.8496858,10.074 63.808553,10.3359444 63.808553,10.5429444 L63.808553,12.4749444 C63.808553,13.3182778 64.0669184,14.03 64.5887909,14.6088333 C65.1080926,15.1902222 65.7842131,15.4802778 66.6145817,15.4802778 C67.5914858,15.4802778 68.349872,15.1058889 68.8935963,14.3596667 C69.4411768,13.6108889 69.7123962,12.6257222 69.7123962,11.4028889 Z" id="Shape"></path>
                    <path d="M85.7657597,11.3057778 C85.7657597,13.2799444 85.2284624,14.8375556 84.1590094,15.9824444 C83.1975301,17.0008333 82.0072495,17.5068333 80.5817406,17.5068333 C79.0482581,17.5068333 77.9428139,16.9599444 77.2731204,15.8623333 L77.2229898,15.8623333 L77.2229898,21.9688333 L74.6316229,21.9688333 L74.6316229,9.46833333 C74.6316229,8.22761111 74.5994879,6.9575 74.5365033,5.65288889 L76.8155179,5.65288889 L76.9581973,7.49033333 L77.0057571,7.49033333 C77.8695461,6.10777778 79.1819397,5.4165 80.9416527,5.4165 C82.3170309,5.4165 83.4648933,5.95572222 84.3839545,7.03927778 C85.3055864,8.119 85.7657597,9.54116667 85.7657597,11.3057778 Z M83.1268331,11.4028889 C83.1268331,10.2720556 82.8710384,9.34438889 82.3581637,8.60966667 C81.7977292,7.84811111 81.0457701,7.46605556 80.1010009,7.46605556 C79.4608716,7.46605556 78.8811561,7.67561111 78.360569,8.09727778 C77.8399819,8.51894444 77.5019216,9.07094444 77.3412466,9.75455556 C77.2615518,10.074 77.220419,10.3359444 77.220419,10.5429444 L77.220419,12.4749444 C77.220419,13.3182778 77.4813552,14.03 78.0006569,14.6088333 C78.5199586,15.1902222 79.1960791,15.4802778 80.0290185,15.4802778 C81.0033519,15.4802778 81.7643088,15.1058889 82.3080331,14.3596667 C82.8530428,13.6108889 83.1268331,12.6257222 83.1268331,11.4028889 Z" id="Shape"></path>
                    <path d="M100.761239,12.7381667 C100.761239,14.1053889 100.281785,15.2183333 99.3254468,16.077 C98.2714186,17.0148889 96.8022061,17.4851111 94.9190948,17.4851111 C93.1786629,17.4851111 91.7840036,17.1503333 90.72869,16.4820556 L91.3289719,14.3353889 C92.4639803,15.019 93.7133894,15.3614444 95.0720574,15.3614444 C96.0489616,15.3614444 96.8099185,15.1442222 97.3536428,14.7046667 C97.8973671,14.2651111 98.169872,13.6811667 98.169872,12.9477222 C98.169872,12.2960556 97.9462123,11.7453333 97.4976077,11.3006667 C97.0502884,10.8534444 96.307327,10.4394444 95.2661529,10.0573889 C92.4369869,9.00705556 91.0204759,7.46988889 91.0204759,5.44588889 C91.0204759,4.12338889 91.515355,3.04111111 92.5063986,2.19777778 C93.4974421,1.35316667 94.8188336,0.9315 96.4654313,0.9315 C97.9384999,0.9315 99.162201,1.18577778 100.13782,1.69561111 L99.489978,3.795 C98.5760585,3.30177778 97.5438821,3.05516667 96.3947343,3.05516667 C95.4808147,3.05516667 94.7699884,3.27877778 94.2583991,3.72344444 C93.8265046,4.11955556 93.6105574,4.60638889 93.6105574,5.17755556 C93.6105574,5.81388889 93.8586396,6.33777778 94.3535187,6.75177778 C94.7854132,7.13383333 95.5682219,7.54783333 96.7058011,7.9925 C98.0966042,8.54961111 99.1210681,9.2 99.7766223,9.94877778 C100.434747,10.6937222 100.761239,11.6252222 100.761239,12.7381667 Z" id="Shape"></path>
                    <path d="M109.327146,7.58488889 L106.469701,7.58488889 L106.469701,13.2147778 C106.469701,14.6446111 106.974864,15.3614444 107.983903,15.3614444 C108.445361,15.3614444 108.829696,15.3218333 109.134336,15.2413333 L109.207604,17.1976111 C108.696014,17.3892778 108.022465,17.4851111 107.192096,17.4851111 C106.167632,17.4851111 105.369399,17.1758889 104.792254,16.5536111 C104.21768,15.9351667 103.928465,14.8912222 103.928465,13.4294444 L103.928465,7.58488889 L102.226595,7.58488889 L102.226595,5.65288889 L103.928465,5.65288889 L103.928465,3.5305 L106.472272,2.76638889 L106.472272,5.65161111 L109.329717,5.65161111 L109.329717,7.58488889 L109.327146,7.58488889 Z" id="Shape"></path>
                    <path d="M122.210713,11.3530556 C122.210713,13.1355556 121.699123,14.5973333 120.67723,15.7435 C119.605206,16.9216111 118.182268,17.5081111 116.40456,17.5081111 C114.692407,17.5081111 113.328597,16.9446111 112.314416,15.8163333 C111.297665,14.6855 110.789931,13.2633333 110.789931,11.546 C110.789931,9.74944444 111.311804,8.27872222 112.361976,7.13383333 C113.408292,5.98894444 114.822232,5.4165 116.59737,5.4165 C118.309523,5.4165 119.68233,5.98 120.72479,7.10827778 C121.715833,8.20588889 122.210713,9.62038889 122.210713,11.3530556 Z M119.524226,11.4373889 C119.524226,10.3691667 119.290283,9.45044444 118.828825,8.68761111 C118.283815,7.76122222 117.508718,7.29994444 116.500965,7.29994444 C115.458505,7.29994444 114.667984,7.76122222 114.122974,8.68761111 C113.658945,9.45172222 113.427573,10.3845 113.427573,11.4846667 C113.427573,12.5528889 113.658945,13.4716111 114.122974,14.2344444 C114.683409,15.1608333 115.468788,15.6221111 116.475257,15.6221111 C117.4663,15.6221111 118.242682,15.1531667 118.803117,14.2114444 C119.283856,13.432 119.524226,12.5056111 119.524226,11.4373889 Z" id="Shape"></path>
                    <path d="M130.63394,7.91838889 C130.378146,7.87111111 130.106926,7.84811111 129.817711,7.84811111 C128.906362,7.84811111 128.200678,8.19055556 127.705799,8.87161111 C127.273904,9.47855556 127.057957,10.2413889 127.057957,11.1626667 L127.057957,17.2448889 L124.46659,17.2448889 L124.489727,9.3035 C124.489727,7.96566667 124.457592,6.7505 124.394608,5.65288889 L126.6492,5.65288889 L126.74689,7.87111111 L126.817587,7.87111111 C127.091377,7.107 127.523272,6.49622222 128.11327,6.03366667 C128.690415,5.62222222 129.313834,5.41522222 129.986099,5.41522222 C130.227754,5.41522222 130.442416,5.43055556 130.63394,5.4625 L130.63394,7.91838889 Z" id="Shape"></path>
                    <path d="M142.223109,10.9007222 C142.223109,11.362 142.190974,11.7517222 142.127989,12.0686111 L134.352603,12.0686111 C134.384738,13.2135 134.76136,14.0875 135.48247,14.6944444 C136.138024,15.2336667 136.983817,15.5058333 138.026277,15.5058333 C139.17671,15.5058333 140.225597,15.3205556 141.169081,14.9563889 L141.575267,16.7452778 C140.473679,17.2218889 139.167712,17.4595556 137.663794,17.4595556 C135.856521,17.4595556 134.43744,16.9331111 133.406549,15.8751111 C132.375658,14.8171111 131.857641,13.3975 131.857641,11.6175556 C131.857641,9.86827778 132.337096,8.41288889 133.298575,7.25266667 C134.305043,6.01194444 135.666282,5.39094444 137.378435,5.39094444 C139.058453,5.39094444 140.328429,6.01194444 141.192218,7.25266667 C141.878621,8.23783333 142.223109,9.453 142.223109,10.9007222 Z M139.75257,10.2324444 C139.767994,9.46833333 139.599607,8.81027778 139.247407,8.25316667 C138.800088,7.53633333 138.112399,7.17983333 137.18434,7.17983333 C136.335976,7.17983333 135.648287,7.52866667 135.121272,8.22761111 C134.689378,8.78727778 134.433583,9.453 134.352603,10.2311667 L139.75257,10.2311667 L139.75257,10.2324444 Z" id="Shape"></path>
                </g>
                <g id="Group" transform="translate(54.258373, 7.000000)" fill="#FFFFFF">
                    <path d="M7.67758557,5.01125 C7.67758557,6.4825 7.22285609,7.59 6.31468531,8.33375 C5.47350018,9.02 4.27806404,9.36375 2.72966507,9.36375 C1.96190651,9.36375 1.30493191,9.33125 0.754876702,9.26625 L0.754876702,1.2275 C1.47239603,1.115 2.24530732,1.0575 3.08005153,1.0575 C4.55502392,1.0575 5.66672801,1.36875 6.41645197,1.99125 C7.25634891,2.695 7.67758557,3.70125 7.67758557,5.01125 Z M6.25285241,5.0475 C6.25285241,4.09375 5.99263894,3.3625 5.472212,2.8525 C4.95178506,2.34375 4.19175561,2.08875 3.19083548,2.08875 C2.76573427,2.08875 2.40375414,2.11625 2.10360692,2.17375 L2.10360692,8.285 C2.26978285,8.31 2.57379463,8.32125 3.01564225,8.32125 C4.04876702,8.32125 4.84615385,8.0425 5.40780272,7.485 C5.9694516,6.9275 6.25285241,6.115 6.25285241,5.0475 Z" id="Shape"></path>
                    <path d="M15.2237762,6.29625 C15.2237762,7.2025 14.9571218,7.945 14.423813,8.5275 C13.8647405,9.12625 13.1240339,9.425 12.1991167,9.425 C11.3076923,9.425 10.5979021,9.13875 10.0684579,8.56375 C9.5403018,7.99 9.27622378,7.26625 9.27622378,6.39375 C9.27622378,5.48125 9.54803092,4.7325 10.0942216,4.15125 C10.6404122,3.57 11.374678,3.27875 12.2995951,3.27875 C13.1910195,3.27875 13.9072506,3.565 14.4495767,4.13875 C14.9648509,4.69625 15.2237762,5.41625 15.2237762,6.29625 Z M13.8235186,6.33875 C13.8235186,5.795 13.7024291,5.32875 13.4615385,4.94 C13.1781377,4.47 12.7749356,4.235 12.2506441,4.235 C11.708318,4.235 11.2960986,4.47 11.0126978,4.94 C10.770519,5.32875 10.6507177,5.8025 10.6507177,6.3625 C10.6507177,6.90625 10.7718071,7.3725 11.0126978,7.76125 C11.3051159,8.23125 11.7121826,8.46625 12.2377622,8.46625 C12.7530364,8.46625 13.1575267,8.2275 13.4486566,7.74875 C13.6998528,7.3525 13.8235186,6.8825 13.8235186,6.33875 Z" id="Shape"></path>
                    <path d="M25.3450497,3.39875 L23.4449761,9.29125 L22.208318,9.29125 L21.4212367,6.7325 C21.2215679,6.09375 21.0592565,5.45875 20.9330144,4.82875 L20.9085388,4.82875 C20.7913139,5.47625 20.6290026,6.11 20.4203165,6.7325 L19.5842841,9.29125 L18.333456,9.29125 L16.5467427,3.39875 L17.9341185,3.39875 L18.6207214,6.2 C18.7868973,6.8625 18.923445,7.49375 19.0329407,8.09125 L19.0574163,8.09125 C19.1578947,7.59875 19.3240707,6.97125 19.5585204,6.2125 L20.4203165,3.4 L21.5204269,3.4 L22.3461538,6.1525 C22.5458226,6.82375 22.708134,7.47 22.833088,8.0925 L22.8704453,8.0925 C22.9619065,7.48625 23.0997424,6.84 23.2826647,6.1525 L24.0195068,3.4 L25.3450497,3.4 L25.3450497,3.39875 Z" id="Shape"></path>
                    <path d="M32.3424733,9.29125 L30.9937431,9.29125 L30.9937431,5.91625 C30.9937431,4.87625 30.5866765,4.35625 29.7699669,4.35625 C29.3693412,4.35625 29.0460066,4.49875 28.7948105,4.785 C28.5461907,5.07125 28.4199485,5.40875 28.4199485,5.795 L28.4199485,9.29 L27.0699301,9.29 L27.0699301,5.0825 C27.0699301,4.565 27.0531837,4.00375 27.020979,3.39625 L28.2073979,3.39625 L28.270519,4.3175 L28.3078763,4.3175 C28.465035,4.03125 28.6994847,3.795 29.0073611,3.60625 C29.3732057,3.38625 29.7828487,3.275 30.2311373,3.275 C30.7979389,3.275 31.2694148,3.4525 31.6442768,3.80875 C32.1105999,4.245 32.3437615,4.89625 32.3437615,5.76125 L32.3437615,9.29125 L32.3424733,9.29125 Z" id="Shape"></path>
                    <polygon id="Shape" points="36.0666176 9.29125 34.7165992 9.29125 34.7165992 0.695 36.0666176 0.695"></polygon>
                    <path d="M44.0134339,6.29625 C44.0134339,7.2025 43.7467795,7.945 43.2134707,8.5275 C42.6543982,9.12625 41.9136916,9.425 40.9887744,9.425 C40.09735,9.425 39.3875598,9.13875 38.8581156,8.56375 C38.3299595,7.99 38.0658815,7.26625 38.0658815,6.39375 C38.0658815,5.48125 38.3376886,4.7325 38.8838793,4.15125 C39.4300699,3.57 40.1643357,3.27875 41.0892529,3.27875 C41.9806772,3.27875 42.6969084,3.565 43.2392344,4.13875 C43.7545086,4.69625 44.0134339,5.41625 44.0134339,6.29625 Z M42.6131763,6.33875 C42.6131763,5.795 42.4920869,5.32875 42.2511962,4.94 C41.9677954,4.47 41.5645933,4.235 41.0403018,4.235 C40.4979757,4.235 40.0857563,4.47 39.8023555,4.94 C39.5601767,5.32875 39.4403754,5.8025 39.4403754,6.3625 C39.4403754,6.90625 39.5614649,7.3725 39.8023555,7.76125 C40.0947736,8.23125 40.5018403,8.46625 41.0274199,8.46625 C41.5426941,8.46625 41.9471844,8.2275 42.2383143,7.74875 C42.4882223,7.3525 42.6131763,6.8825 42.6131763,6.33875 Z" id="Shape"></path>
                    <path d="M50.5471108,9.29125 L49.3349282,9.29125 L49.2357379,8.6125 L49.1983806,8.6125 C48.7822967,9.15375 48.1910195,9.425 47.4245491,9.425 C46.8500184,9.425 46.3862716,9.24625 46.0371734,8.89125 C45.7202797,8.56875 45.5631211,8.1675 45.5631211,7.69125 C45.5631211,6.97125 45.8722856,6.4225 46.4944792,6.0425 C47.1140964,5.6625 47.9874862,5.47625 49.1120721,5.485 L49.1120721,5.375 C49.1120721,4.59875 48.6921237,4.21125 47.8522267,4.21125 C47.2532205,4.21125 46.7250644,4.3575 46.2690467,4.6475 L45.9946632,3.7875 C46.5588885,3.44875 47.2557968,3.27875 48.0776592,3.27875 C49.6659919,3.27875 50.4608024,4.09125 50.4608024,5.71625 L50.4608024,7.88625 C50.4595142,8.475 50.4891424,8.94375 50.5471108,9.29125 Z M49.1468531,7.26625 L49.1468531,6.3575 C47.6564225,6.3325 46.9118513,6.72875 46.9118513,7.545 C46.9118513,7.8525 46.9981597,8.0825 47.1720648,8.23625 C47.3459698,8.39 47.5662495,8.46625 47.8303276,8.46625 C48.1278984,8.46625 48.4035701,8.375 48.6573427,8.19375 C48.9111152,8.0125 49.0656975,7.78 49.1236658,7.49625 C49.139124,7.4325 49.1468531,7.355 49.1468531,7.26625 Z" id="Shape"></path>
                    <path d="M58.2195436,9.29125 L57.0202429,9.29125 L56.9571218,8.345 L56.9197644,8.345 C56.5371734,9.065 55.8866397,9.425 54.9707398,9.425 C54.2377622,9.425 53.6297387,9.14625 53.1466691,8.58875 C52.6635996,8.03125 52.4227089,7.3075 52.4227089,6.41875 C52.4227089,5.465 52.6842105,4.6925 53.208502,4.1025 C53.7173353,3.5525 54.3421053,3.2775 55.0828119,3.2775 C55.8995215,3.2775 56.4701877,3.54375 56.7948105,4.0775 L56.8205742,4.0775 L56.8205742,0.695 L58.1705926,0.695 L58.1705926,7.70375 C58.1705926,8.2775 58.187339,8.80625 58.2195436,9.29125 Z M56.8205742,6.80625 L56.8205742,5.82375 C56.8205742,5.65375 56.8076923,5.51625 56.7832168,5.41125 C56.7072138,5.09625 56.5436143,4.83125 56.2937063,4.6175 C56.0425101,4.40375 55.7410747,4.29625 55.3906883,4.29625 C54.8882959,4.29625 54.4941112,4.49 54.2042694,4.87875 C53.9157159,5.2675 53.7714391,5.76375 53.7714391,6.37 C53.7714391,6.9525 53.9092749,7.425 54.1862348,7.78875 C54.4786529,8.17625 54.8715495,8.37 55.3649245,8.37 C55.8080604,8.37 56.1635996,8.20875 56.4315421,7.885 C56.6917556,7.58625 56.8205742,7.22625 56.8205742,6.80625 Z" id="Shape"></path>
                    <path d="M69.7655502,6.29625 C69.7655502,7.2025 69.4988958,7.945 68.965587,8.5275 C68.4065145,9.12625 67.6658079,9.425 66.7408907,9.425 C65.8494663,9.425 65.1396761,9.13875 64.6102319,8.56375 C64.0820758,7.99 63.8179978,7.26625 63.8179978,6.39375 C63.8179978,5.48125 64.0898049,4.7325 64.6359956,4.15125 C65.1821862,3.57 65.916452,3.27875 66.8413692,3.27875 C67.7327935,3.27875 68.4490247,3.565 68.9913508,4.13875 C69.506625,4.69625 69.7655502,5.41625 69.7655502,6.29625 Z M68.3652926,6.33875 C68.3652926,5.795 68.2442032,5.32875 68.0033125,4.94 C67.7199117,4.47 67.3167096,4.235 66.7924181,4.235 C66.250092,4.235 65.8378727,4.47 65.5544718,4.94 C65.312293,5.32875 65.1924917,5.8025 65.1924917,6.3625 C65.1924917,6.90625 65.3135812,7.3725 65.5544718,7.76125 C65.84689,8.23125 66.2539566,8.46625 66.7795363,8.46625 C67.2948105,8.46625 67.6993007,8.2275 67.9904306,7.74875 C68.2416268,7.3525 68.3652926,6.8825 68.3652926,6.33875 Z" id="Shape"></path>
                    <path d="M77.0244755,9.29125 L75.6744571,9.29125 L75.6744571,5.91625 C75.6744571,4.87625 75.2673905,4.35625 74.4506809,4.35625 C74.0500552,4.35625 73.7267206,4.49875 73.4755245,4.785 C73.2269047,5.07125 73.1006625,5.40875 73.1006625,5.795 L73.1006625,9.29 L71.7506441,9.29 L71.7506441,5.0825 C71.7506441,4.565 71.7338977,4.00375 71.701693,3.39625 L72.8881119,3.39625 L72.951233,4.3175 L72.9885904,4.3175 C73.145749,4.03125 73.3801987,3.795 73.6880751,3.60625 C74.0539198,3.38625 74.4635628,3.275 74.9118513,3.275 C75.4786529,3.275 75.9501288,3.4525 76.3249908,3.80875 C76.7913139,4.245 77.0244755,4.89625 77.0244755,5.76125 L77.0244755,9.29125 L77.0244755,9.29125 Z" id="Shape"></path>
                    <path d="M86.1100478,4.38 L84.6234818,4.38 L84.6234818,7.2425 C84.6234818,7.97 84.8862716,8.33375 85.4105631,8.33375 C85.652742,8.33375 85.8524107,8.31375 86.0108576,8.2725 L86.0469268,9.26625 C85.7802724,9.36375 85.4298859,9.4125 84.9983438,9.4125 C84.465035,9.4125 84.048951,9.255 83.7488038,8.94 C83.4486566,8.625 83.2979389,8.095 83.2979389,7.35125 L83.2979389,4.38 L82.4116673,4.38 L82.4116673,3.39875 L83.2979389,3.39875 L83.2979389,2.31875 L84.6221936,1.93125 L84.6221936,3.3975 L86.1087597,3.3975 L86.1087597,4.38 L86.1100478,4.38 Z" id="Shape"></path>
                    <path d="M93.3187339,9.29125 L91.9687155,9.29125 L91.9687155,5.94125 C91.9687155,4.885 91.5616489,4.35625 90.7449393,4.35625 C90.1201693,4.35625 89.6912035,4.6625 89.458042,5.275 C89.41682,5.40375 89.3949209,5.56125 89.3949209,5.74625 L89.3949209,9.29 L88.0449025,9.29 L88.0449025,0.695 L89.3949209,0.695 L89.3949209,4.24625 L89.4206846,4.24625 C89.8457858,3.6 90.4538093,3.2775 91.2447552,3.2775 C91.8038278,3.2775 92.2649982,3.455 92.632131,3.81125 C93.0894369,4.255 93.3187339,4.915 93.3187339,5.7875 L93.3187339,9.29125 L93.3187339,9.29125 Z" id="Shape"></path>
                    <path d="M100.317446,6.06625 C100.317446,6.30125 100.299411,6.49875 100.267206,6.66 L96.2184395,6.66 C96.2351859,7.2425 96.4297019,7.68625 96.8045639,7.99375 C97.1472212,8.26875 97.5877806,8.40625 98.1288185,8.40625 C98.729113,8.40625 99.2753036,8.31375 99.7661023,8.1275 L99.9773647,9.0375 C99.402834,9.28 98.7239603,9.40125 97.9407435,9.40125 C97.0003681,9.40125 96.2596614,9.1325 95.722488,8.595 C95.1853147,8.0575 94.9173721,7.33625 94.9173721,6.43125 C94.9173721,5.5425 95.1659919,4.8025 95.6670961,4.2125 C96.1913876,3.5825 96.8986014,3.2675 97.7900258,3.2675 C98.6647037,3.2675 99.3268311,3.5825 99.7764078,4.2125 C100.1371,4.7125 100.317446,5.33125 100.317446,6.06625 Z M99.0292602,5.7275 C99.0382775,5.33875 98.9493927,5.00375 98.7677586,4.72125 C98.5333088,4.3575 98.1764814,4.175 97.6934119,4.175 C97.2515642,4.175 96.8934487,4.3525 96.617777,4.70875 C96.3936327,4.9925 96.2609496,5.33125 96.2184395,5.7275 L99.0292602,5.7275 Z" id="Shape"></path>
                </g>
            </g>
        </g>
    </g>
</svg>